<?xml version="1.0" standalone="no"?>
<!DOCTYPE svg PUBLIC "-//W3C//DTD SVG 20010904//EN"
 "http://www.w3.org/TR/2001/REC-SVG-20010904/DTD/svg10.dtd">
<svg version="1.0" xmlns="http://www.w3.org/2000/svg"
 width="1563.000000pt" height="1563.000000pt" viewBox="0 0 1563.000000 1563.000000"
 preserveAspectRatio="xMidYMid meet">

<g transform="translate(0.000000,1563.000000) scale(0.100000,-0.100000)"
fill="#000000" stroke="none">
<path d="M7165 12886 c-1542 -138 -2895 -948 -3737 -2236 -93 -142 -215 -350
-259 -441 -26 -55 -20 -94 16 -111 38 -17 69 11 115 103 94 186 300 507 447
696 705 907 1677 1525 2787 1773 336 75 667 110 1046 110 372 0 654 -30 1042
-112 192 -40 199 -41 218 -23 27 25 26 71 -3 89 -48 32 -481 113 -752 142
-208 21 -727 27 -920 10z"/>
<path d="M9020 12662 c-23 -18 -31 -66 -14 -82 5 -5 83 -35 174 -68 91 -33
179 -66 196 -73 37 -15 57 -9 80 25 15 24 15 28 0 52 -10 14 -37 34 -61 44
-52 22 -333 120 -345 120 -4 0 -18 -8 -30 -18z"/>
<path d="M7405 12564 c-27 -2 -111 -9 -185 -14 -711 -55 -1442 -295 -2067
-680 -315 -194 -566 -393 -844 -670 -253 -252 -404 -434 -576 -691 -133 -199
-288 -472 -278 -489 15 -24 34 -3 89 99 426 794 1117 1469 1932 1888 983 505
2084 646 3169 405 90 -20 134 -26 143 -19 22 18 -1 28 -134 58 -192 43 -408
76 -599 93 -172 15 -558 27 -650 20z"/>
<path d="M10424 11935 c-26 -40 -11 -67 72 -130 92 -69 286 -239 369 -324 44
-45 66 -61 87 -61 34 0 63 39 53 71 -14 43 -283 293 -449 417 -77 58 -108 64
-132 27z"/>
<path d="M11166 11268 c-9 -12 -16 -29 -16 -38 0 -8 46 -68 101 -132 83 -98
106 -118 128 -118 32 0 61 27 61 58 0 20 -75 117 -164 210 -47 49 -85 56 -110
20z"/>
<path d="M9048 10658 c12 -6 22 -15 22 -20 0 -5 -9 -4 -20 2 -17 9 -20 8 -20
-10 0 -16 6 -20 35 -20 32 0 35 2 35 30 0 28 -2 30 -37 29 -35 0 -36 -1 -15
-11z"/>
<path d="M11698 10583 c-29 -34 -27 -50 14 -119 243 -415 396 -763 513 -1171
39 -137 115 -461 115 -492 0 -7 -38 -11 -110 -11 -106 0 -110 1 -115 23 -3 12
-12 58 -20 102 -44 221 -139 534 -237 780 -53 131 -186 411 -237 500 -66 113
-135 227 -141 230 -4 3 -13 -1 -18 -8 -9 -10 1 -34 39 -96 254 -422 447 -908
544 -1366 14 -66 28 -131 31 -144 l5 -24 -289 6 c-309 6 -358 14 -369 57 -10
40 -28 13 -31 -46 -1 -32 -9 -142 -17 -244 -8 -102 -15 -198 -15 -213 0 -33
20 -36 28 -4 16 63 98 203 154 262 70 75 134 110 233 126 85 13 131 4 159 -35
21 -27 21 -35 21 -719 0 -758 1 -743 -59 -774 -17 -9 -61 -18 -98 -21 -51 -3
-68 -8 -68 -19 0 -12 27 -14 176 -11 l175 3 -6 -35 c-16 -91 -68 -308 -105
-432 -364 -1245 -1245 -2276 -2427 -2839 -1230 -587 -2676 -584 -3918 5 -295
140 -616 344 -890 563 -181 144 -503 459 -638 623 -379 460 -647 940 -827
1480 -79 235 -154 537 -176 707 -7 57 -29 88 -40 58 -18 -45 83 -493 169 -755
124 -378 309 -756 539 -1105 277 -421 657 -823 1073 -1136 466 -352 995 -608
1573 -764 841 -226 1759 -202 2591 67 887 287 1628 801 2213 1538 426 536 747
1229 888 1910 11 57 23 107 26 110 5 4 216 1 221 -3 5 -5 -40 -225 -76 -368
-127 -517 -357 -1038 -656 -1494 -262 -398 -626 -796 -1015 -1111 -510 -413
-1163 -740 -1811 -908 -776 -200 -1626 -202 -2404 -5 -1593 405 -2882 1608
-3399 3172 -73 220 -145 509 -176 707 -15 95 -18 107 -36 125 -22 21 -58 19
-79 -5 -18 -19 -18 -27 -6 -108 62 -436 234 -969 457 -1415 675 -1350 1936
-2325 3412 -2637 327 -69 533 -91 921 -97 512 -9 839 25 1278 133 1633 399
2964 1615 3508 3204 105 307 186 642 221 915 35 284 39 341 39 690 0 349 -7
473 -39 689 -14 101 -11 104 76 60 102 -52 179 -158 216 -299 18 -70 42 -88
42 -32 0 62 20 422 26 465 6 50 -9 56 -41 16 -26 -33 -73 -43 -220 -45 l-119
-1 -7 28 c-4 16 -21 97 -39 179 -111 515 -305 1010 -575 1464 -77 131 -110
156 -147 114z m676 -2003 c50 -402 50 -858 0 -1260 -9 -69 -18 -127 -20 -129
-10 -11 -59 16 -78 42 -21 28 -21 33 -21 730 0 766 -2 736 58 762 40 17 40 18
61 -145z"/>
<path d="M10257 10229 c4 -16 8 -17 14 -7 13 19 11 28 -5 28 -9 0 -12 -7 -9
-21z"/>
<path d="M3047 9932 c-23 -25 -137 -314 -137 -346 0 -35 26 -58 63 -54 37 4
36 1 118 210 59 153 61 159 45 183 -20 30 -65 34 -89 7z"/>
<path d="M8595 9860 c0 -27 17 -49 38 -50 4 0 7 18 7 40 0 35 -3 40 -23 40
-19 0 -23 -5 -22 -30z"/>
<path d="M2838 9308 c-30 -10 -34 -20 -72 -173 -61 -246 -116 -601 -132 -858
-7 -121 3 -147 57 -147 44 0 56 30 64 155 14 247 60 538 131 833 35 149 35
171 -4 190 -10 6 -28 5 -44 0z"/>
<path d="M7780 9130 c0 -5 5 -10 10 -10 6 0 10 5 10 10 0 6 -4 10 -10 10 -5 0
-10 -4 -10 -10z"/>
<path d="M8273 8993 c-13 -5 -18 -45 -7 -56 10 -10 44 17 44 34 0 18 -18 29
-37 22z"/>
<path d="M9117 8883 c-10 -9 -9 -43 1 -43 15 0 30 22 25 36 -6 15 -16 18 -26
7z"/>
<path d="M3845 8819 c-161 -17 -346 -86 -469 -174 -79 -56 -189 -173 -235
-248 -151 -253 -147 -609 11 -883 79 -139 243 -280 386 -334 225 -85 501 -77
719 21 237 106 408 293 494 542 28 78 33 110 37 213 5 142 -11 235 -62 360
-84 205 -247 370 -444 450 -119 48 -292 69 -437 53z m180 -95 c91 -28 188 -94
249 -168 211 -258 257 -771 98 -1096 -70 -144 -205 -247 -354 -270 -304 -47
-575 222 -642 635 -65 399 18 722 217 856 118 79 269 94 432 43z"/>
<path d="M8295 8814 c-264 -50 -423 -227 -402 -451 7 -75 31 -132 85 -205 48
-65 88 -98 262 -216 238 -160 329 -249 371 -362 24 -64 28 -179 9 -250 -25
-92 -111 -144 -237 -143 -157 2 -295 133 -438 417 -77 154 -79 150 -72 -125
l6 -234 30 -25 c65 -55 249 -100 410 -100 280 0 486 126 556 340 23 69 23 177
2 251 -10 33 -39 88 -69 130 -57 79 -153 156 -365 294 -135 88 -196 140 -243
207 -47 67 -62 114 -62 193 1 101 37 165 117 208 32 17 56 22 120 21 170 -1
259 -83 375 -342 26 -57 51 -104 56 -105 11 -2 22 388 12 420 -20 62 -345 110
-523 77z"/>
<path d="M9236 8821 c-5 -7 -15 -10 -23 -7 -9 4 -13 1 -10 -6 2 -7 14 -12 25
-10 16 2 22 -2 23 -15 0 -10 3 -13 5 -7 7 18 -11 59 -20 45z"/>
<path d="M460 8784 c0 -6 24 -14 53 -17 71 -7 103 -24 122 -62 13 -29 15 -122
15 -737 0 -679 -1 -704 -20 -735 -21 -34 -67 -53 -132 -53 -27 0 -38 -4 -38
-15 0 -13 30 -15 228 -14 125 1 319 -1 432 -5 184 -7 215 -6 300 12 375 77
618 327 681 698 15 88 7 267 -15 349 -59 216 -206 390 -421 495 -188 92 -200
94 -737 94 -337 1 -468 -2 -468 -10z m898 -61 c79 -20 163 -73 229 -147 157
-176 234 -507 188 -806 -28 -185 -86 -317 -185 -418 -107 -110 -250 -160 -426
-149 -105 6 -155 25 -188 70 -21 28 -21 39 -24 693 -3 732 -4 717 59 749 34
18 178 34 244 28 22 -2 68 -11 103 -20z"/>
<path d="M5654 8791 c-2 -2 -4 -42 -4 -88 l0 -83 75 0 75 0 0 55 c0 62 11 70
31 23 11 -27 14 -163 14 -735 0 -696 0 -702 -21 -730 -24 -33 -72 -52 -131
-52 -31 -1 -43 -5 -43 -16 0 -13 76 -15 643 -13 l642 3 12 180 c6 99 14 206
17 238 5 47 3 57 -9 57 -9 0 -18 -8 -22 -17 -27 -80 -79 -166 -132 -220 -120
-120 -244 -166 -457 -167 -152 -1 -178 8 -195 63 -7 24 -9 268 -7 724 l3 689
31 28 c25 22 45 29 98 35 40 4 66 11 64 17 -4 11 -674 19 -684 9z"/>
<path d="M9800 8784 c0 -6 25 -14 57 -17 61 -6 100 -29 120 -68 10 -18 13
-188 13 -724 0 -647 -1 -703 -18 -735 -19 -40 -61 -59 -129 -59 -30 -1 -43 -5
-43 -15 0 -12 53 -14 340 -14 287 0 340 2 340 14 0 10 -13 14 -42 15 -69 0
-111 19 -130 59 -17 32 -18 88 -18 728 0 756 -1 746 57 775 15 8 52 18 81 22
28 4 52 12 52 18 0 9 -89 12 -340 12 -242 0 -340 -3 -340 -11z"/>
<path d="M13710 8786 c0 -9 18 -15 57 -19 67 -7 103 -31 120 -78 16 -45 18
-1375 2 -1432 -13 -48 -44 -68 -119 -74 -41 -4 -60 -10 -60 -19 0 -12 101 -14
600 -14 l600 0 4 23 c3 12 7 76 10 142 3 66 9 150 12 188 6 56 4 67 -8 67 -9
0 -23 -20 -33 -47 -39 -105 -117 -194 -210 -241 -83 -41 -154 -55 -292 -56
-126 -1 -132 0 -157 23 -14 14 -30 41 -36 60 -6 20 -10 173 -10 350 l0 313
173 -4 c188 -4 238 -17 301 -76 34 -32 65 -96 66 -134 0 -18 5 -28 14 -28 12
0 15 40 14 260 -1 185 -5 260 -13 260 -6 0 -16 -19 -22 -43 -26 -96 -101 -143
-252 -158 -53 -6 -136 -9 -186 -7 l-90 3 -3 275 c-3 295 1 331 44 371 25 23
30 24 172 23 113 0 157 -4 191 -17 94 -36 184 -131 216 -227 10 -29 23 -50 31
-50 12 0 14 31 14 178 0 125 -4 182 -12 190 -19 19 -1138 17 -1138 -2z"/>
<path d="M8398 8633 c7 -3 16 -2 19 1 4 3 -2 6 -13 5 -11 0 -14 -3 -6 -6z"/>
<path d="M5450 8530 c0 -27 3 -30 30 -30 27 0 30 3 30 30 0 27 -3 30 -30 30
-27 0 -30 -3 -30 -30z"/>
<path d="M9414 8395 c-1 -14 2 -25 7 -25 5 0 9 11 9 25 0 33 -15 33 -16 0z"/>
<path d="M9149 7273 c5 -10 34 -32 65 -50 l56 -32 0 50 0 49 -65 0 c-60 0 -65
-2 -56 -17z"/>
<path d="M8960 7267 c0 -13 170 -188 215 -221 11 -9 37 -16 58 -16 l37 0 0 52
c0 40 -3 49 -12 40 -27 -27 -88 -8 -88 27 0 9 -26 41 -57 73 -54 55 -60 58
-105 58 -33 0 -48 -4 -48 -13z"/>
<path d="M8965 7138 c-3 -8 -5 -40 -3 -69 l3 -54 63 -3 c46 -2 62 0 62 10 0 8
-27 40 -60 73 -45 45 -61 55 -65 43z"/>
<path d="M9350 7084 c0 -33 2 -35 28 -32 22 2 28 8 30 36 3 30 1 32 -27 32
-29 0 -31 -3 -31 -36z"/>
<path d="M6518 6998 c-14 -14 -18 -35 -18 -97 l0 -79 83 3 c45 1 85 3 90 4 4
0 7 41 7 90 l0 89 -72 4 c-59 2 -76 0 -90 -14z m147 -68 c0 -7 -6 -15 -12 -17
-8 -3 -13 4 -13 17 0 13 5 20 13 18 6 -3 12 -11 12 -18z m-54 -73 c-8 -8 -11
-7 -11 4 0 9 3 19 7 23 4 4 9 2 11 -4 3 -7 -1 -17 -7 -23z"/>
<path d="M8608 6811 c-4 -29 -3 -31 29 -31 32 0 34 2 31 28 -2 21 -9 28 -29
30 -23 3 -27 -1 -31 -27z"/>
<path d="M5416 6635 c4 -8 10 -15 15 -15 5 0 9 7 9 15 0 8 -7 15 -15 15 -9 0
-12 -6 -9 -15z"/>
<path d="M4725 6621 c-3 -5 -1 -12 5 -16 5 -3 10 1 10 9 0 18 -6 21 -15 7z"/>
<path d="M5810 6586 c0 -13 6 -27 13 -29 8 -4 9 -8 1 -14 -5 -4 -11 -38 -12
-75 l-3 -68 111 0 110 0 0 105 c0 98 -1 105 -20 105 -11 0 -20 -4 -20 -10 0
-5 -5 -10 -11 -10 -5 0 -7 5 -4 10 4 6 -16 10 -54 10 -48 0 -60 -3 -64 -17 -4
-17 -5 -17 -6 0 -1 10 -9 17 -21 17 -14 0 -20 -7 -20 -24z m130 -36 c0 -5 -4
-10 -10 -10 -5 0 -10 5 -10 10 0 6 5 10 10 10 6 0 10 -4 10 -10z m-20 -30 c0
-5 -4 -10 -10 -10 -5 0 -10 5 -10 10 0 6 5 10 10 10 6 0 10 -4 10 -10z m-20
-49 c0 -5 -9 -11 -20 -14 -13 -3 -20 0 -20 9 0 8 9 14 20 14 11 0 20 -4 20 -9z
m0 -31 c0 -5 -5 -10 -11 -10 -5 0 -7 5 -4 10 3 6 8 10 11 10 2 0 4 -4 4 -10z"/>
<path d="M5733 6460 c2 -40 4 -45 26 -45 13 0 26 6 29 13 2 7 -2 13 -9 11 -25
-3 -39 1 -39 10 0 6 9 8 20 6 15 -3 20 2 20 18 0 16 -3 18 -12 9 -17 -17 -26
-15 -31 6 -3 9 -5 -3 -4 -28z"/>
<path d="M6117 6403 c-4 -3 -7 -17 -7 -30 0 -16 6 -23 19 -23 26 0 31 10 20
38 -8 22 -20 28 -32 15z"/>
<path d="M5952 6345 c1 -14 8 -25 14 -25 7 0 9 10 6 25 -2 14 -8 25 -13 25 -5
0 -8 -11 -7 -25z"/>
<path d="M5658 6113 c6 -2 18 -2 25 0 6 3 1 5 -13 5 -14 0 -19 -2 -12 -5z"/>
<path d="M4607 6073 c-10 -9 -9 -71 1 -77 5 -3 6 8 4 25 -2 16 1 36 8 44 12
15 0 22 -13 8z"/>
<path d="M5990 6003 c0 -25 1 -26 24 -17 24 9 20 43 -4 41 -14 -1 -20 -8 -20
-24z"/>
<path d="M6349 5975 c-4 -21 -2 -55 4 -55 4 0 16 0 27 0 16 0 20 7 20 30 0 25
-4 30 -25 30 -14 0 -25 -2 -26 -5z"/>
<path d="M4450 5960 c0 -5 5 -10 11 -10 5 0 7 5 4 10 -3 6 -8 10 -11 10 -2 0
-4 -4 -4 -10z"/>
<path d="M4940 5932 c0 -37 1 -38 30 -34 27 4 30 8 30 38 0 31 -3 34 -30 34
-28 0 -30 -2 -30 -38z"/>
<path d="M4165 5790 c-3 -5 1 -10 10 -10 9 0 13 5 10 10 -3 6 -8 10 -10 10 -2
0 -7 -4 -10 -10z"/>
<path d="M5129 5348 c-3 -22 -1 -34 4 -29 5 5 7 21 5 37 -3 27 -4 26 -9 -8z"/>
<path d="M4682 5325 c-11 -13 -10 -15 7 -15 14 0 19 5 15 15 -7 18 -6 18 -22
0z"/>
<path d="M4410 5190 c0 -5 5 -10 11 -10 5 0 7 5 4 10 -3 6 -8 10 -11 10 -2 0
-4 -4 -4 -10z"/>
<path d="M4783 5045 c0 -22 2 -30 4 -17 2 12 2 30 0 40 -3 9 -5 -1 -4 -23z"/>
<path d="M4505 4951 c-3 -5 -1 -12 5 -16 5 -3 10 1 10 9 0 18 -6 21 -15 7z"/>
<path d="M5290 4890 c0 -5 5 -10 10 -10 6 0 10 5 10 10 0 6 -4 10 -10 10 -5 0
-10 -4 -10 -10z"/>
</g>
</svg>
